<?xml version="1.0" encoding="UTF-8" standalone="no"?>
<!-- Created with Inkscape (http://www.inkscape.org/) -->

<svg
   xmlns:dc="http://purl.org/dc/elements/1.1/"
   xmlns:cc="http://creativecommons.org/ns#"
   xmlns:rdf="http://www.w3.org/1999/02/22-rdf-syntax-ns#"
   xmlns:svg="http://www.w3.org/2000/svg"
   xmlns="http://www.w3.org/2000/svg"
   version="1.2"
   width="200"
   height="189.26164"
   id="svg2">
  <defs
     id="defs4">
    <linearGradient
       id="linearGradient7159">
      <stop
         id="stop7161"
         style="stop-color:#ff0000;stop-opacity:1"
         offset="0" />
      <stop
         id="stop7163"
         style="stop-color:#0266c8;stop-opacity:0"
         offset="1" />
    </linearGradient>
    <linearGradient
       id="linearGradient7028">
      <stop
         id="stop7030"
         style="stop-color:#fe0707;stop-opacity:1"
         offset="0" />
    </linearGradient>
    <linearGradient
       id="linearGradient7028-2">
      <stop
         id="stop7030-4"
         style="stop-color:#fe0707;stop-opacity:1"
         offset="0" />
    </linearGradient>
    <linearGradient
       id="linearGradient7028-9">
      <stop
         id="stop7030-8"
         style="stop-color:#fe0707;stop-opacity:1"
         offset="0" />
    </linearGradient>
  </defs>
  <metadata
     id="metadata7">
    <rdf:RDF>
      <cc:Work
         rdf:about="">
        <dc:format>image/svg+xml</dc:format>
        <dc:type
           rdf:resource="http://purl.org/dc/dcmitype/StillImage" />
        <dc:title></dc:title>
      </cc:Work>
    </rdf:RDF>
  </metadata>
  <g
     transform="translate(72.071419,-668.03784)"
     id="layer6"
     style="display:inline">
    <g
       transform="matrix(0.35747033,0,0,0.39249842,-116.01086,557.92131)"
       id="flowRoot5337"
       style="font-size:40px;font-style:normal;font-weight:normal;line-height:125%;letter-spacing:0.01078245px;word-spacing:0.00539122px;fill:#07a4fe;fill-opacity:1;stroke:none;font-family:Sans">
      <path
         d="m 278.7984,697.57031 c -9e-5,11.15627 -3.86727,20.06251 -11.60157,26.71875 -6.14069,5.29688 -13.19537,7.94531 -21.16406,7.94531 -4.64067,0 -9.00004,-0.98437 -13.07812,-2.95312 -2.34379,-1.125 -4.75785,-2.97656 -7.24219,-5.55469 l 0,39.02344 -23.0625,0 0,-97.875 23.0625,0 0,7.24219 c 2.06247,-2.71869 4.28903,-4.73431 6.67969,-6.04688 3.93745,-2.20306 8.41401,-3.30462 13.42968,-3.30469 8.10932,7e-5 15.32806,2.78913 21.65625,8.36719 7.5468,6.6563 11.32023,15.4688 11.32032,26.4375 z M 254.82183,697.5 c -6e-5,-3.70309 -1.17193,-6.91402 -3.51562,-9.63281 -2.95318,-3.46871 -6.75005,-5.20308 -11.39063,-5.20313 -4.17191,5e-5 -7.69925,1.42974 -10.58203,4.28906 -2.88284,2.85942 -4.32425,6.37504 -4.32422,10.54688 -3e-5,4.12503 1.4531,7.62893 4.35938,10.51172 2.90621,2.88283 6.42183,4.32424 10.54687,4.32422 4.64058,2e-5 8.41401,-1.73436 11.32032,-5.20313 2.39056,-2.81247 3.58587,-6.02341 3.58593,-9.63281 z"
         id="path7523"
         style="font-size:144px;font-variant:normal;font-weight:bold;font-stretch:normal;text-align:center;letter-spacing:12.93893814px;text-anchor:middle;fill:#07a4fe;font-family:Aharoni;-inkscape-font-specification:Aharoni Bold" />
      <path
         d="m 374.56546,706.28906 c -8e-5,12.14064 -5.74226,20.20313 -17.22657,24.1875 -4.7813,1.64063 -10.61723,2.46094 -17.50781,2.46094 -13.5469,0 -23.27346,-3.32812 -29.17969,-9.98438 -3.75001,-4.21873 -5.625,-9.77342 -5.625,-16.66406 l 0,-41.41406 23.0625,0 0,36.98437 c -3e-5,4.07815 0.98435,7.07815 2.95313,9 2.10934,2.06252 5.03902,3.09377 8.78906,3.09375 3.70308,2e-5 6.60933,-1.03123 8.71875,-3.09375 1.9687,-1.92185 2.95307,-4.92185 2.95313,-9 l 0,-36.98437 23.0625,0 z"
         id="path7525"
         style="font-size:144px;font-variant:normal;font-weight:bold;font-stretch:normal;text-align:center;letter-spacing:12.93893814px;text-anchor:middle;fill:#07a4fe;font-family:Aharoni;-inkscape-font-specification:Aharoni Bold" />
      <path
         d="m 509.15185,708.11719 c -6e-5,6.93751 -2.48443,12.60938 -7.45312,17.01562 -5.57818,4.96875 -13.42973,7.45313 -23.55469,7.45313 -8.95315,0 -17.64845,-2.50781 -26.08594,-7.52344 l 8.36719,-16.3125 c 6.60935,4.35939 12.74997,6.53908 18.42187,6.53906 4.82809,2e-5 7.24215,-1.66404 7.24219,-4.99219 -4e-5,-1.73435 -0.84379,-3.07028 -2.53125,-4.00781 -1.07816,-0.60935 -3.51566,-1.33591 -7.3125,-2.17969 -4.26565,-0.93747 -7.05471,-1.66403 -8.36719,-2.17968 -4.68751,-1.8281 -7.85157,-4.68747 -9.49218,-8.57813 -0.89064,-2.10933 -1.33595,-4.64058 -1.33594,-7.59375 -1e-5,-5.7187 1.9453,-10.71088 5.83594,-14.97656 5.0156,-5.48431 12.74997,-8.22649 23.20312,-8.22656 7.26558,7e-5 14.32026,1.40631 21.16406,4.21875 l -7.80468,14.90625 c -4.31255,-2.20308 -8.43755,-3.30464 -12.375,-3.30469 -4.64066,5e-5 -6.96097,1.5938 -6.96094,4.78125 -3e-5,1.45317 0.93747,2.62504 2.8125,3.51562 0.84371,0.42192 3.32809,1.05473 7.45312,1.89844 6.04683,1.26567 10.49995,3.28129 13.35938,6.04688 3.60931,3.46878 5.414,7.96878 5.41406,13.5 z"
         id="path7527"
         style="font-size:144px;font-variant:normal;font-weight:bold;font-stretch:normal;text-align:center;letter-spacing:12.93893814px;text-anchor:middle;fill:#07a4fe;font-family:Aharoni;-inkscape-font-specification:Aharoni Bold" />
      <path
         d="m 603.23141,701.71875 -48.51562,0 c -3e-5,9.79689 4.73434,14.69533 14.20312,14.69531 4.82808,2e-5 8.5312,-2.06248 11.10938,-6.1875 l 22.28906,0 c -1.78133,5.90627 -4.40632,10.47657 -7.875,13.71094 -6.28131,5.85938 -14.69537,8.78906 -25.24219,8.78906 -13.40628,0 -23.48439,-4.07812 -30.23437,-12.23437 -5.06251,-6.09374 -7.59376,-13.52342 -7.59375,-22.28907 -10e-6,-10.4062 3.16405,-18.86713 9.49218,-25.38281 6.32811,-6.51556 15.25779,-9.77337 26.78907,-9.77344 14.20306,7e-5 24.35149,5.15632 30.44531,15.46875 3.4218,5.81255 5.13273,12.56254 5.13281,20.25 z M 581.71579,688.5 c -1.64068,-7.2187 -6.02349,-10.82807 -13.14844,-10.82813 -7.57357,0.4684 -12.15356,4.80032 -13.21875,10.82813 z"
         id="path7529"
         style="font-size:144px;font-variant:normal;font-weight:bold;font-stretch:normal;text-align:center;letter-spacing:12.93893814px;text-anchor:middle;fill:#07a4fe;font-family:Aharoni;-inkscape-font-specification:Aharoni Bold" />
      <path
         d="m 682.40472,708.11719 c -6e-5,6.93751 -2.48443,12.60938 -7.45313,17.01562 -5.57817,4.96875 -13.42972,7.45313 -23.55468,7.45313 -8.95315,0 -17.64845,-2.50781 -26.08594,-7.52344 l 8.36719,-16.3125 c 6.60935,4.35939 12.74997,6.53908 18.42187,6.53906 4.82809,2e-5 7.24215,-1.66404 7.24219,-4.99219 -4e-5,-1.73435 -0.84379,-3.07028 -2.53125,-4.00781 -1.07816,-0.60935 -3.51566,-1.33591 -7.3125,-2.17969 -4.26565,-0.93747 -7.05471,-1.66403 -8.36719,-2.17968 -4.68751,-1.8281 -7.85157,-4.68747 -9.49219,-8.57813 -0.89063,-2.10933 -1.33594,-4.64058 -1.33593,-7.59375 -1e-5,-5.7187 1.9453,-10.71088 5.83593,-14.97656 5.01561,-5.48431 12.74998,-8.22649 23.20313,-8.22656 7.26558,7e-5 14.32026,1.40631 21.16406,4.21875 l -7.80469,14.90625 c -4.31254,-2.20308 -8.43754,-3.30464 -12.375,-3.30469 -4.64065,5e-5 -6.96096,1.5938 -6.96093,4.78125 -3e-5,1.45317 0.93746,2.62504 2.8125,3.51562 0.84371,0.42192 3.32808,1.05473 7.45312,1.89844 6.04683,1.26567 10.49995,3.28129 13.35938,6.04688 3.60931,3.46878 5.414,7.96878 5.41406,13.5 z"
         id="path7531"
         style="font-size:144px;font-variant:normal;font-weight:bold;font-stretch:normal;text-align:center;letter-spacing:12.93893814px;text-anchor:middle;fill:#07a4fe;font-family:Aharoni;-inkscape-font-specification:Aharoni Bold" />
    </g>
    <g
       transform="matrix(3.4460415,0,0,3.4460415,-77.240481,662.86878)"
       id="g7426"
       style="fill:#0266c8;fill-opacity:1">
      <g
         id="g7428"
         style="fill:#0266c8;fill-opacity:1">
        <path
           d="m 3.91,33.436 c -1.331,0 -2.41,-1.079 -2.41,-2.41 V 18.975 c 0,-1.331 1.079,-2.41 2.41,-2.41 1.331,0 2.41,1.079 2.41,2.41 v 12.051 c 0,1.33 -1.079,2.41 -2.41,2.41 z"
           id="path7430"
           style="fill:#0266c8;fill-opacity:1" />
      </g>
      <g
         id="g7432"
         style="fill:#0266c8;fill-opacity:1">
        <path
           d="m 10.94,39.462 c -1.331,0 -2.41,-1.079 -2.41,-2.41 V 12.948 c 0,-1.331 1.079,-2.41 2.41,-2.41 1.331,0 2.41,1.079 2.41,2.41 v 24.104 c 0.001,1.331 -1.079,2.41 -2.41,2.41 z"
           id="path7434"
           style="fill:#0266c8;fill-opacity:1" />
      </g>
      <g
         id="g7436"
         style="fill:#0266c8;fill-opacity:1">
        <path
           d="m 17.97,36.448 c -1.331,0 -2.41,-1.079 -2.41,-2.41 V 15.962 c 0,-1.331 1.079,-2.41 2.41,-2.41 1.331,0 2.411,1.079 2.411,2.41 v 18.076 c -0.001,1.331 -1.08,2.41 -2.411,2.41 z"
           id="path7438"
           style="fill:#0266c8;fill-opacity:1" />
      </g>
      <g
         id="g7440"
         style="fill:#0266c8;fill-opacity:1">
        <path
           d="m 25,42.475 c -1.331,0 -2.41,-1.079 -2.41,-2.41 V 9.936 c 0,-1.331 1.079,-2.41 2.41,-2.41 1.331,0 2.41,1.079 2.41,2.41 v 30.129 c 0,1.331 -1.079,2.41 -2.41,2.41 z"
           id="path7442"
           style="fill:#0266c8;fill-opacity:1" />
      </g>
      <g
         id="g7444"
         style="fill:#0266c8;fill-opacity:1">
        <path
           d="m 32.03,52.996935 c -1.331,0 -2.411,-1.182238 -2.411,-2.640587 V 4.1405875 C 29.619,2.6822382 30.699,1.5 32.03,1.5 c 1.331,0 2.41,1.1822382 2.41,2.6405875 V 50.356348 c 0,1.458349 -1.079,2.640587 -2.41,2.640587 z"
           id="path7446"
           style="fill:#07a4fe;fill-opacity:1" />
      </g>
      <g
         id="g7448"
         style="fill:#0266c8;fill-opacity:1">
        <path
           d="m 39.06,39.462 c -1.331,0 -2.41,-1.079 -2.41,-2.41 V 12.948 c 0,-1.331 1.079,-2.41 2.41,-2.41 1.331,0 2.41,1.079 2.41,2.41 v 24.104 c 0,1.331 -1.079,2.41 -2.41,2.41 z"
           id="path7450"
           style="fill:#0266c8;fill-opacity:1" />
      </g>
      <g
         id="g7452"
         style="fill:#0266c8;fill-opacity:1">
        <path
           d="m 46.09,30.423 c -1.331,0 -2.41,-1.079 -2.41,-2.41 v -6.025 c 0,-1.331 1.079,-2.41 2.41,-2.41 1.331,0 2.41,1.079 2.41,2.41 v 6.025 c 0,1.331 -1.079,2.41 -2.41,2.41 z"
           id="path7454"
           style="fill:#0266c8;fill-opacity:1" />
      </g>
    </g>
  </g>
</svg>
